<svg width="32" height="32" viewBox="0 0 32 32" fill="none" xmlns="http://www.w3.org/2000/svg">
<path fill-rule="evenodd" clip-rule="evenodd" d="M13.998 18.002C11.9505 15.9545 10.407 13.662 9.38151 11.3362C9.16451 10.8445 9.29226 10.2687 9.67201 9.88899L11.1053 8.45749C12.2795 7.28324 12.2795 5.62249 11.254 4.59699L9.19951 2.54249C7.83276 1.17574 5.61726 1.17574 4.25051 2.54249L3.10951 3.68349C1.81276 4.98024 1.27201 6.85099 1.62201 8.70599C2.48651 13.2787 5.14301 18.2855 9.42876 22.5712C13.7145 26.857 18.7213 29.5135 23.294 30.378C25.149 30.728 27.0198 30.1872 28.3165 28.8905L29.4558 27.7512C30.8225 26.3845 30.8225 24.169 29.4558 22.8022L27.403 20.7495C26.3775 19.724 24.715 19.724 23.6913 20.7495L22.111 22.3315C21.7313 22.7112 21.1555 22.839 20.6638 22.622C18.338 21.5947 16.0455 20.0495 13.998 18.002Z" stroke="#737BE1" stroke-width="3" stroke-linecap="round" stroke-linejoin="round"/>
</svg>
